<svg width="202" height="42" viewBox="0 0 202 42" fill="none" xmlns="http://www.w3.org/2000/svg" role="img" aria-labelledby="logoTitle logoDesc">
  <title id="logoTitle">ShuttleUp</title>
  <desc id="logoDesc">ShuttleUp badminton logo - dark text, original shuttlecock</desc>

  <!-- Original shuttlecock icon, tinted for dark-text version -->
  <mask id="mask0_shuttleup_black" style="mask-type:alpha" maskUnits="userSpaceOnUse" x="0" y="0" width="43" height="42">
    <path d="M0.5 1H41.8312V41H0.5V1Z" fill="#D9D9D9" stroke="#23B33A"/>
  </mask>
  <g mask="url(#mask0_shuttleup_black)">
    <path d="M35.2703 27.0249L27.6826 35.145L30.8774 38.2733L34.5104 39.4448L38.2623 36.9612C39.2996 33.687 38.4093 30.1077 35.9589 27.7012L35.2703 27.0249Z" fill="#4CAF50" stroke="#4CAF50"/>
    <path d="M1.73245 25.1965C1.78144 25.2756 5.06913 26.5752 9.89536 28.4105C14.3369 30.1079 19.8213 32.2446 22.0749 33.1606C25.9005 34.7155 26.1894 34.8468 26.192 35.0222C26.1963 35.3171 29.1722 38.2078 30.0332 38.7534C30.7334 39.2056 31.4553 39.5061 32.2472 39.6859C32.919 39.8276 34.4335 39.8056 35.1009 39.6444C36.6499 39.2552 38.0236 38.3263 38.867 37.1102C40.2336 35.137 40.4355 32.5749 39.4002 30.4612C38.9484 29.5429 38.5103 29.0231 36.8283 27.3972C35.656 26.2741 35.2119 25.8899 35.0604 25.8921C34.8851 25.8947 34.7454 25.6097 33.088 21.8308C32.1069 19.6047 29.8037 14.1849 27.9778 9.78657C25.7224 4.35805 24.6087 1.78311 24.5122 1.72871C23.9498 1.43392 22.7314 2.08147 21.6956 3.22067C20.7775 4.2306 20.341 5.46474 20.3631 6.98721C20.3824 8.31837 20.7446 9.65252 21.4583 11.0294C22.6392 13.2924 25.2022 15.7427 28.8884 18.1287L30.3693 19.0878L31.7543 22.2249L27.5832 26.519L26.2974 25.2701C25.0601 24.0682 25.0115 24.0131 24.9094 23.5761C24.7477 22.8689 23.8001 20.2038 23.3715 19.2454C20.8245 13.5022 17.5543 10.1135 13.6985 9.22075C12.7625 9.00315 11.2312 8.96162 10.3487 9.1339C9.38663 9.31531 9.10164 9.45499 8.94755 9.82397C8.5785 10.7621 8.55248 12.8115 8.90684 14.1537C9.80978 17.5848 12.6983 20.4927 17.4831 22.7672C19.2814 23.626 22.1344 24.6369 23.6059 24.9504C24.0137 25.0322 24.1025 25.1026 25.3155 26.2809L26.6013 27.5299L24.5117 29.673L22.4302 31.824L19.2542 30.5308L18.2525 29.0783C15.8419 25.5894 13.2531 23.012 11.0527 21.9198C9.57519 21.1919 8.2469 20.8604 6.86792 20.8804C5.81574 20.8957 5.02131 21.0906 4.20655 21.533C2.69579 22.3602 1.28304 24.4457 1.73245 25.1965ZM3.65734 23.7893C4.45601 22.7891 5.33442 22.3378 6.64074 22.255C9.45266 22.0866 12.2998 23.7913 15.3024 27.423C15.7813 28.006 16.9439 29.5518 16.9447 29.6076C16.9455 29.6634 3.23582 24.4093 3.23501 24.3535C3.23466 24.3296 3.42238 24.0797 3.65734 23.7893ZM10.0929 10.7322C10.1615 10.5159 10.3202 10.4658 11.2839 10.3959C14.0714 10.196 16.8438 11.6944 19.1107 14.6193C20.8494 16.8583 22.2051 19.6291 23.432 23.4062C23.4488 23.4618 23.4252 23.486 23.3692 23.4709C20.4627 22.6202 18.2573 21.7274 16.3277 20.6154C12.8141 18.5856 10.8111 16.2627 10.1402 13.4422C10.0048 12.902 9.97899 11.1245 10.0929 10.7322ZM21.8894 5.58575C22.1338 4.84871 22.5709 4.20454 23.1774 3.69344C23.4609 3.45014 23.7132 3.25513 23.7371 3.25478C23.769 3.25432 23.9996 3.76122 24.2478 4.37949C24.504 5.0056 25.7682 8.05672 27.0649 11.1552C28.3618 14.2616 29.3953 16.8059 29.3635 16.8063C29.2519 16.8079 26.7209 14.9153 25.9296 14.2252C23.2087 11.8809 21.7693 9.39047 21.7259 6.95146C21.7081 6.27403 21.7441 6.01041 21.8894 5.58575ZM25.7101 30.3891L27.5717 28.4725L29.9169 30.7505L28.503 32.2061C27.7253 33.0067 27.0572 33.6622 27.0173 33.6628C26.8978 33.6646 23.8419 32.4094 23.8412 32.3616C23.8408 32.3297 24.681 31.4485 25.7101 30.3891ZM31.3979 31.1675L34.9327 27.5284L36.3724 28.9425C37.9336 30.4825 38.1856 30.8217 38.4963 31.9014C38.7312 32.7033 38.7472 33.8033 38.5357 34.6116C38.2941 35.5399 37.9753 36.0947 37.2212 36.871C36.1845 37.9544 35.1387 38.4081 33.6561 38.4297C32.7554 38.4428 32.1556 38.3159 31.3367 37.9292C30.815 37.6896 30.5487 37.4703 29.2956 36.2766C28.5112 35.5147 27.8641 34.8783 27.8638 34.8544C27.8633 34.8225 29.4577 33.1649 31.3979 31.1675ZM32.3327 23.6197C32.3805 23.619 33.7239 26.6371 33.7256 26.7566C33.7262 26.7965 33.0904 27.4834 32.3127 28.284L30.8988 29.7396L28.5536 27.4616L30.4153 25.5451C31.4443 24.4857 32.3008 23.6202 32.3327 23.6197Z" fill="#111827"/>
  </g>

  <!-- ShuttleUp wordmark -->
  <g transform="translate(46 12)">
    <text x="0" y="16"
          font-family="system-ui, -apple-system, BlinkMacSystemFont, 'Segoe UI', sans-serif"
          font-size="20"
          font-weight="700"
          fill="#111827"
          letter-spacing="0.04em">
      ShuttleUp
    </text>
    <text x="2" y="28"
          font-family="system-ui, -apple-system, BlinkMacSystemFont, 'Segoe UI', sans-serif"
          font-size="10"
          font-weight="500"
          fill="#4CAF50"
          letter-spacing="0.12em">
      BADMINTON
    </text>
  </g>
</svg>
